<mxfile host="app.diagrams.net" modified="2024-06-28T17:31:53.417Z" agent="Mozilla/5.0 (Windows NT 10.0; Win64; x64) AppleWebKit/537.36 (KHTML, like Gecko) Chrome/126.0.0.0 Safari/537.36" version="24.6.4" etag="JYX1QD8jW1lxbcK2N26O" type="github">
  <diagram name="PÃ¡gina-1" id="-FqxyD42GyLblsJOLNoR">
    <mxGraphModel>
      <root>
        <mxCell id="0" />
        <mxCell id="1" parent="0" />
      </root>
    </mxGraphModel>
  </diagram>
</mxfile>
